<mxfile host="app.diagrams.net" modified="2020-08-27T00:23:45.025Z" agent="5.0 (X11)" etag="TOn02dxVqXG4uJwpCvuq" version="13.6.5" type="github">
  <diagram id="4_OBXcebH9oap417anLf" name="Page-1">
    <mxGraphModel dx="1102" dy="559" grid="1" gridSize="10" guides="1" tooltips="1" connect="1" arrows="1" fold="1" page="1" pageScale="1" pageWidth="850" pageHeight="1100" math="0" shadow="0">
      <root>
        <mxCell id="0" />
        <mxCell id="1" parent="0" />
        <mxCell id="dYHDe6A7SgbdbC4Onkwx-19" style="edgeStyle=orthogonalEdgeStyle;rounded=0;orthogonalLoop=1;jettySize=auto;html=1;exitX=0;exitY=0.5;exitDx=0;exitDy=0;entryX=0.25;entryY=0;entryDx=0;entryDy=0;" parent="1" source="MfwffEumjH992CMkD7e0-1" target="MfwffEumjH992CMkD7e0-4" edge="1">
          <mxGeometry relative="1" as="geometry" />
        </mxCell>
        <mxCell id="MfwffEumjH992CMkD7e0-1" value="Updated Flow for House Price Prediction" style="rounded=0;whiteSpace=wrap;html=1;" parent="1" vertex="1">
          <mxGeometry x="270" y="10" width="310" height="50" as="geometry" />
        </mxCell>
        <mxCell id="MfwffEumjH992CMkD7e0-4" value="&lt;div&gt;Main Numerical Categories&lt;/div&gt;" style="rounded=0;whiteSpace=wrap;html=1;" parent="1" vertex="1">
          <mxGeometry x="70" y="90" width="320" height="30" as="geometry" />
        </mxCell>
        <mxCell id="MfwffEumjH992CMkD7e0-8" value="Numerical Factors" style="rounded=0;whiteSpace=wrap;html=1;rotation=-90;" parent="1" vertex="1">
          <mxGeometry x="-95" y="255" width="254.69" height="31.25" as="geometry" />
        </mxCell>
        <mxCell id="MfwffEumjH992CMkD7e0-9" value="&lt;div&gt;Non-numerical Factors&lt;br&gt;&lt;/div&gt;" style="rounded=0;whiteSpace=wrap;html=1;rotation=-90;" parent="1" vertex="1">
          <mxGeometry x="-70.78" y="556.4" width="205" height="30" as="geometry" />
        </mxCell>
        <mxCell id="MfwffEumjH992CMkD7e0-16" value="LotArea" style="rounded=0;whiteSpace=wrap;html=1;" parent="1" vertex="1">
          <mxGeometry x="70" y="140" width="100" height="20" as="geometry" />
        </mxCell>
        <mxCell id="MfwffEumjH992CMkD7e0-21" value="GrLivArea" style="rounded=0;whiteSpace=wrap;html=1;" parent="1" vertex="1">
          <mxGeometry x="70" y="200" width="100" height="20" as="geometry" />
        </mxCell>
        <mxCell id="MfwffEumjH992CMkD7e0-22" value="BsmtFullBath" style="rounded=0;whiteSpace=wrap;html=1;" parent="1" vertex="1">
          <mxGeometry x="180" y="200" width="100" height="20" as="geometry" />
        </mxCell>
        <mxCell id="MfwffEumjH992CMkD7e0-23" value="BsmtHalfBath" style="rounded=0;whiteSpace=wrap;html=1;" parent="1" vertex="1">
          <mxGeometry x="290" y="200" width="100" height="20" as="geometry" />
        </mxCell>
        <mxCell id="MfwffEumjH992CMkD7e0-24" value="FullBath" style="rounded=0;whiteSpace=wrap;html=1;" parent="1" vertex="1">
          <mxGeometry x="70" y="230" width="100" height="20" as="geometry" />
        </mxCell>
        <mxCell id="MfwffEumjH992CMkD7e0-25" value="2ndFlrSF" style="rounded=0;whiteSpace=wrap;html=1;" parent="1" vertex="1">
          <mxGeometry x="180" y="170" width="100" height="20" as="geometry" />
        </mxCell>
        <mxCell id="MfwffEumjH992CMkD7e0-26" value="LowQualFinSQ" style="rounded=0;whiteSpace=wrap;html=1;" parent="1" vertex="1">
          <mxGeometry x="290" y="170" width="100" height="20" as="geometry" />
        </mxCell>
        <mxCell id="MfwffEumjH992CMkD7e0-28" value="TotalBsmtSF" style="rounded=0;whiteSpace=wrap;html=1;" parent="1" vertex="1">
          <mxGeometry x="180" y="140" width="100" height="20" as="geometry" />
        </mxCell>
        <mxCell id="MfwffEumjH992CMkD7e0-29" value="1stFlrSF" style="rounded=0;whiteSpace=wrap;html=1;" parent="1" vertex="1">
          <mxGeometry x="70" y="170" width="100" height="20" as="geometry" />
        </mxCell>
        <mxCell id="MfwffEumjH992CMkD7e0-31" value="HalfBath" style="rounded=0;whiteSpace=wrap;html=1;" parent="1" vertex="1">
          <mxGeometry x="180" y="230" width="100" height="20" as="geometry" />
        </mxCell>
        <mxCell id="MfwffEumjH992CMkD7e0-32" value="TotRmsAbvGrade" style="rounded=0;whiteSpace=wrap;html=1;" parent="1" vertex="1">
          <mxGeometry x="290" y="140" width="100" height="20" as="geometry" />
        </mxCell>
        <mxCell id="MfwffEumjH992CMkD7e0-35" value="KitchenAbvGrade" style="rounded=0;whiteSpace=wrap;html=1;" parent="1" vertex="1">
          <mxGeometry x="70" y="260.63" width="100" height="20" as="geometry" />
        </mxCell>
        <mxCell id="MfwffEumjH992CMkD7e0-36" value="BedrmAbvGrade" style="rounded=0;whiteSpace=wrap;html=1;" parent="1" vertex="1">
          <mxGeometry x="290" y="230" width="100" height="20" as="geometry" />
        </mxCell>
        <mxCell id="dYHDe6A7SgbdbC4Onkwx-10" style="edgeStyle=orthogonalEdgeStyle;rounded=0;orthogonalLoop=1;jettySize=auto;html=1;exitX=0.5;exitY=1;exitDx=0;exitDy=0;entryX=0;entryY=0.5;entryDx=0;entryDy=0;" parent="1" source="MfwffEumjH992CMkD7e0-40" target="dYHDe6A7SgbdbC4Onkwx-7" edge="1">
          <mxGeometry relative="1" as="geometry">
            <mxPoint x="230" y="400" as="sourcePoint" />
          </mxGeometry>
        </mxCell>
        <mxCell id="MfwffEumjH992CMkD7e0-40" value="&lt;div&gt;AgeWhenSold&lt;/div&gt;" style="rounded=0;whiteSpace=wrap;html=1;" parent="1" vertex="1">
          <mxGeometry x="70" y="290" width="100" height="20" as="geometry" />
        </mxCell>
        <mxCell id="MfwffEumjH992CMkD7e0-47" value="GarageCars" style="rounded=0;whiteSpace=wrap;html=1;" parent="1" vertex="1">
          <mxGeometry x="180" y="260.63" width="100" height="20" as="geometry" />
        </mxCell>
        <mxCell id="MfwffEumjH992CMkD7e0-48" value="GarageArea" style="rounded=0;whiteSpace=wrap;html=1;" parent="1" vertex="1">
          <mxGeometry x="290" y="260.63" width="100" height="20" as="geometry" />
        </mxCell>
        <mxCell id="dYHDe6A7SgbdbC4Onkwx-3" value="Neighborhood" style="rounded=0;whiteSpace=wrap;html=1;" parent="1" vertex="1">
          <mxGeometry x="470" y="470" width="100" height="20" as="geometry" />
        </mxCell>
        <mxCell id="dYHDe6A7SgbdbC4Onkwx-6" value="CentralAir" style="rounded=0;whiteSpace=wrap;html=1;" parent="1" vertex="1">
          <mxGeometry x="580" y="470" width="100" height="20" as="geometry" />
        </mxCell>
        <mxCell id="dYHDe6A7SgbdbC4Onkwx-7" value="&lt;div&gt;Main Non-numerical Categories&lt;/div&gt;" style="rounded=0;whiteSpace=wrap;html=1;" parent="1" vertex="1">
          <mxGeometry x="470" y="420" width="320" height="30" as="geometry" />
        </mxCell>
      </root>
    </mxGraphModel>
  </diagram>
</mxfile>
